<svg width="512" height="512" viewBox="0 0 100 100" xmlns="http://www.w3.org/2000/svg">
  <title>Q AI Logo - Editable Dark</title>
  <desc>A stylized letter 'Q' logo incorporating a symmetric AI node motif. Created by Gemini.</desc>

  <!-- Using a parent group allows easy color changes -->
  <g id="logo-q-ai" fill="#111827">

    <!-- The main 'Q' shape -->
    <g id="q-shape" aria-label="Stylized letter Q">
      <!-- The ring is a compound path to create the hollow center -->
      <path id="q-ring" d="M50,2 a48,48 0 1,1 0,96 a48,48 0 1,1 0,-96 M50,18 a32,32 0 1,0 0,64 a32,32 0 1,0 0,-64 Z"
        fill-rule="evenodd" />
      <path id="q-tail" d="M67,67 l20,20 -6,6 -20,-20 6,-6 Z" />
    </g>

    <g id="ai-motif" aria-label="Symmetric AI or neural network motif">
      <path id="connections" d="M50,45 L50,38 M50,55 L50,62 M45,50 L38,50 M55,50 L62,50" stroke="#111827"
        stroke-width="1.5" stroke-linecap="round" fill="none" />
      <circle id="node-center" cx="50" cy="50" r="5" />
      <circle id="node-top" cx="50" cy="35" r="3" />
      <circle id="node-bottom" cx="50" cy="65" r="3" />
      <circle id="node-left" cx="35" cy="50" r="3" />
      <circle id="node-right" cx="65" cy="50" r="3" />
    </g>

  </g>
</svg>